<?xml version="1.0" encoding="UTF-8"?>
<svg version="1.1" xmlns="http://www.w3.org/2000/svg" width="512" height="512">
<path d="M0 0 C1.71604324 -0.01275828 1.71604324 -0.01275828 3.46675402 -0.0257743 C7.28524632 -0.04798974 11.10275914 -0.03462226 14.92127991 -0.02119446 C17.66499136 -0.02686823 20.40865678 -0.0399639 23.15234375 -0.0526123 C29.82213127 -0.07864891 36.49164877 -0.07762619 43.16146772 -0.06657412 C48.58453401 -0.05800223 54.00752241 -0.05885707 59.43058968 -0.06637001 C60.59008144 -0.06795234 60.59008144 -0.06795234 61.77299728 -0.06956664 C63.34352618 -0.07173766 64.91405506 -0.07392443 66.48458392 -0.07612679 C81.19903798 -0.09553991 95.9133408 -0.08357489 110.62778247 -0.06134085 C123.24069663 -0.04309291 135.85331799 -0.0539927 148.46620178 -0.08564758 C163.12785951 -0.12244246 177.78933444 -0.13942053 192.45103842 -0.12623531 C194.01596897 -0.12489427 195.58089955 -0.12358528 197.14583015 -0.12230873 C198.30066345 -0.12136273 198.30066345 -0.12136273 199.47882671 -0.12039762 C204.89195573 -0.11737539 210.30494639 -0.12860841 215.71804619 -0.14555931 C222.31993034 -0.16592216 228.92140153 -0.16495737 235.52326434 -0.13692691 C238.88894873 -0.12318945 242.25332221 -0.1221537 245.61907196 -0.14087677 C249.27448787 -0.15956084 252.92793398 -0.14113958 256.58325195 -0.11352539 C257.63744998 -0.12759184 258.69164801 -0.14165829 259.77779144 -0.156151 C267.26071072 -0.04251512 272.47918815 1.96247553 278.3551178 6.64164734 C284.13591905 12.97038767 286.53171764 20.95616187 289.08021545 28.97319031 C289.73696696 31.03818284 290.41343091 33.09591412 291.09339905 35.15336609 C294.3551178 45.14711445 294.3551178 45.14711445 294.3551178 48.64164734 C295.4894928 48.59524109 296.6238678 48.54883484 297.7926178 48.50102234 C313.95730729 48.02780455 313.95730729 48.02780455 319.3551178 52.64164734 C324.3915384 57.46653828 327.95932221 61.78954373 328.6910553 68.91117859 C328.78556297 77.48302456 328.47452041 83.40012805 322.3785553 89.67680359 C316.94979971 94.64164734 316.94979971 94.64164734 314.3551178 94.64164734 C314.62775452 96.14562073 314.62775452 96.14562073 314.90589905 97.67997742 C315.58643682 101.44863791 316.25428894 105.21945996 316.91859436 108.99101257 C317.20622667 110.61401165 317.49716308 112.23642914 317.79164124 113.85820007 C322.04545169 137.31926693 322.04545169 137.31926693 318.9957428 143.31352234 C314.7947769 145.42643418 310.72945748 145.06004066 306.1051178 144.89164734 C305.16925842 144.87360046 304.23339905 144.85555359 303.2691803 144.83695984 C300.96344764 144.78990407 298.65980835 144.72418447 296.3551178 144.64164734 C296.31773499 145.82629578 296.28035217 147.01094421 296.24183655 148.23149109 C295.51765464 168.40456923 293.89177472 188.51765767 292.3551178 208.64164734 C293.46371155 208.59524109 294.5723053 208.54883484 295.7144928 208.50102234 C297.17800748 208.46349632 298.64155135 208.42709705 300.1051178 208.39164734 C300.83472717 208.35813171 301.56433655 208.32461609 302.3160553 208.29008484 C305.60321115 208.23031837 307.8266561 208.27929068 310.5774641 210.16547012 C313.03625297 213.59043246 312.84246395 216.60167382 312.6882019 220.65110779 C312.6722434 221.44501191 312.6562849 222.23891603 312.63984281 223.05687785 C312.40832845 232.21906674 311.73439555 241.35504727 311.02577209 250.49028015 C310.88231495 252.40431727 310.73941797 254.31839643 310.59703064 256.23251343 C310.21291253 261.37062881 309.82014645 266.50804596 309.42497611 271.64532185 C309.09466854 275.94757152 308.76823964 280.25011243 308.44163448 284.55264449 C307.67135721 294.69658808 306.89351497 304.83993258 306.11122131 314.98295593 C305.305235 325.43535066 304.51378114 335.88877775 303.72905225 346.34278798 C303.05268867 355.34514304 302.36660713 364.34672273 301.67287761 373.34775615 C301.2595263 378.71283163 300.8500376 384.07813224 300.45024681 389.44423676 C300.07482876 394.47839861 299.68731725 399.51148471 299.29046249 404.54400063 C299.14701577 406.38914844 299.00787272 408.23463668 298.8733654 410.08045769 C298.689025 412.60080368 298.48914253 415.11945433 298.28533936 417.63829041 C298.21090081 418.73175998 298.21090081 418.73175998 298.13495845 419.84731984 C297.74734754 424.37495212 296.72846587 427.76050798 294.3551178 431.64164734 C291.28978615 433.17431316 288.08757508 432.74441205 284.7301178 432.70414734 C284.02371155 432.69963562 283.3173053 432.6951239 282.5894928 432.69047546 C280.84466505 432.67868609 279.0998808 432.66075058 277.3551178 432.64164734 C277.36191559 433.31017731 277.36871338 433.97870728 277.37571716 434.66749573 C277.41364319 441.29053564 277.19491631 447.85369602 276.7691803 454.46195984 C276.70733551 455.44606842 276.64549072 456.430177 276.58177185 457.44410706 C276.45078743 459.50632922 276.31792412 461.56843285 276.1832428 463.63041687 C275.98020925 466.76523537 275.78852778 469.90062021 275.5973053 473.03617859 C275.4677897 475.05315027 275.33760415 477.07007908 275.2066803 479.08695984 C275.15138153 480.01219452 275.09608276 480.9374292 275.03910828 481.89070129 C274.32917178 492.37506355 273.04660872 500.55788379 264.9176178 507.89164734 C259.09087742 512.92075968 253.46562846 512.93248036 246.08892822 512.90907288 C245.04491122 512.91360399 244.00089422 512.9181351 242.92524034 512.92280352 C239.42159675 512.93547911 235.91810797 512.93382509 232.41444397 512.93217468 C229.90454915 512.93815795 227.39465617 512.94496303 224.88476562 512.95252991 C218.77130123 512.96837976 212.65789369 512.97463919 206.54441067 512.97575466 C201.57415021 512.97670544 196.60390245 512.98081724 191.63364601 512.98715591 C177.53729833 513.00476699 163.44098109 513.01399503 149.34462234 513.01249497 C148.58488027 513.01241505 147.82513821 513.01233514 147.04237366 513.01225281 C146.28170227 513.01217105 145.52103088 513.01208928 144.73730884 513.01200505 C132.41131276 513.01119225 120.0854389 513.0303285 107.75947817 513.05852954 C95.0986136 513.08726788 82.43780862 513.1010693 69.7769106 513.09934199 C62.67065062 513.0986784 55.56451877 513.10415699 48.45828819 513.12569809 C41.77452391 513.14582894 35.091075 513.14522652 28.40728188 513.13066483 C25.95470917 513.12857169 23.50211966 513.13330754 21.04957581 513.14538574 C17.70015107 513.16081195 14.35166275 513.15154633 11.0022583 513.13612366 C10.03288887 513.14641078 9.06351943 513.15669791 8.06477517 513.16729677 C0.87987267 513.09424324 -4.43617707 511.45345689 -9.8870697 506.67680359 C-10.42589783 506.02582703 -10.96472595 505.37485046 -11.5198822 504.70414734 C-12.07417908 504.0557489 -12.62847595 503.40735046 -13.1995697 502.73930359 C-16.67753783 497.69154985 -17.14312992 492.71795514 -17.6448822 486.76664734 C-17.72464294 485.87477722 -17.80440369 484.9829071 -17.88658142 484.06401062 C-18.61974328 475.55618892 -19.20388123 467.03694699 -19.7698822 458.51664734 C-19.85753845 457.21356628 -19.9451947 455.91048523 -20.0355072 454.56791687 C-20.50097956 447.24705024 -20.76470049 439.97718949 -20.6448822 432.64164734 C-21.68128845 432.68805359 -22.7176947 432.73445984 -23.7855072 432.78227234 C-25.15526999 432.81980009 -26.52506402 432.85619918 -27.8948822 432.89164734 C-28.57679626 432.92516296 -29.25871033 432.95867859 -29.96128845 432.99320984 C-33.41600079 433.06029163 -35.27296596 432.92238411 -38.0667572 430.81352234 C-40.94328194 426.85474077 -40.98004372 422.71595604 -41.33459473 417.99905396 C-41.39670244 417.21289815 -41.45881015 416.42674235 -41.52279991 415.61676365 C-41.73064437 412.97355629 -41.93299503 410.32995713 -42.13536072 407.68632507 C-42.28298069 405.79390593 -42.43091723 403.90151146 -42.57914734 402.00914001 C-42.98156135 396.85773118 -43.37900817 391.70595043 -43.77521253 386.5540607 C-44.10688037 382.24593774 -44.44071086 377.93798338 -44.77446502 373.63002163 C-45.56296467 363.45066392 -46.34720295 353.27098371 -47.12901306 343.09111023 C-47.93308619 332.6225342 -48.74504245 322.15459057 -49.56084305 311.68692249 C-50.26221849 302.68321444 -50.95820142 293.67909994 -51.65005821 284.6746555 C-52.06271776 279.30495147 -52.47743019 273.93542672 -52.89750862 268.56629753 C-53.29356041 263.50165461 -53.68281652 258.43653184 -54.06715393 253.37098694 C-54.20827405 251.52553182 -54.35167757 249.68024943 -54.49770927 247.83517647 C-55.21287874 238.78183424 -55.797999 229.72956094 -55.97994995 220.64813232 C-56.00835388 219.8995582 -56.0367578 219.15098407 -56.06602246 218.37972587 C-56.09431743 214.93668756 -55.89932304 212.99601858 -53.86710453 210.16565609 C-50.53992896 207.88386609 -47.26909853 208.2136798 -43.3948822 208.39164734 C-42.64980408 208.40969421 -41.90472595 208.42774109 -41.1370697 208.44633484 C-39.30578519 208.49329085 -37.47516572 208.56503082 -35.6448822 208.64164734 C-35.73052429 207.5200824 -35.81616638 206.39851746 -35.90440369 205.2429657 C-39.02812633 164.1864284 -39.02812633 164.1864284 -39.6448822 144.64164734 C-40.22979431 144.6625946 -40.81470642 144.68354187 -41.41734314 144.7051239 C-44.07634686 144.78844849 -46.73507575 144.84035631 -49.3948822 144.89164734 C-50.31527283 144.92516296 -51.23566345 144.95867859 -52.1839447 144.99320984 C-56.01954339 145.04879823 -58.82670018 145.05315901 -62.2855072 143.31352234 C-66.86806294 134.30643002 -62.37080901 120.95929347 -60.6448822 111.45414734 C-60.35496077 109.81823162 -60.06589168 108.18216461 -59.7776947 106.54594421 C-59.07656507 102.57603382 -58.36395573 98.60834507 -57.6448822 94.64164734 C-58.82207825 94.20139221 -58.82207825 94.20139221 -60.02305603 93.75224304 C-62.95562064 92.51001971 -64.28301908 91.23772467 -66.3323822 88.82914734 C-66.91374939 88.16270203 -67.49511658 87.49625671 -68.09410095 86.80961609 C-72.71914734 80.34387114 -72.3225794 73.30483874 -71.6448822 65.64164734 C-69.96402638 58.98205401 -65.18109898 54.45617287 -59.6448822 50.64164734 C-55.11262932 48.19873089 -50.8432391 48.40744174 -45.8323822 48.51664734 C-44.64998962 48.5301825 -44.64998962 48.5301825 -43.44371033 48.54399109 C-41.51063554 48.5674223 -39.5777184 48.60328896 -37.6448822 48.64164734 C-37.40253845 47.4260614 -37.1601947 46.21047546 -36.9105072 44.95805359 C-35.51148954 38.68579107 -33.46991482 32.65503718 -31.3948822 26.57914734 C-31.02492126 25.44670593 -30.65496033 24.31426453 -30.27378845 23.14750671 C-26.96415761 13.45017538 -23.48179224 6.59092762 -14.24898803 1.67427099 C-9.57075604 -0.1808199 -4.97547422 -0.04931769 0 0 Z " fill="#000000" transform="translate(127.64488220214844,-0.6416473388671875)"/>
<path d="M0 0 C110.22 0 220.44 0 334 0 C334 6.12390905 333.95553587 12.0410656 333.46850586 18.11196899 C333.41147491 18.86193146 333.35444397 19.61189392 333.29568481 20.38458252 C333.10569832 22.87077727 332.91027592 25.35651301 332.71484375 27.84228516 C332.57434376 29.66571766 332.43418124 31.48917619 332.29432678 33.31265831 C331.92063231 38.17293366 331.54235163 43.03284158 331.16308594 47.89268494 C330.8072258 52.46169895 330.45554829 57.03103123 330.10351562 61.6003418 C329.07318935 74.94221791 328.03619146 88.28357812 327 101.625 C324.69 131.44875 322.38 161.2725 320 192 C219.02 192 118.04 192 14 192 C11.69 162.17625 9.38 132.3525 7 101.625 C6.26910156 92.21436035 5.53820312 82.8037207 4.78515625 73.10791016 C3.89648438 61.6003418 3.89648438 61.6003418 3.48120117 56.21005249 C3.19140553 52.45201114 2.89946047 48.69414347 2.60620117 44.93637085 C2.23168423 40.13646184 1.86087761 35.33627947 1.49270439 30.53587985 C1.35728082 28.77832998 1.22057698 27.02087815 1.08241463 25.26354146 C0.89520483 22.87994357 0.71278968 20.496023 0.53149414 18.11196899 C0.44980736 17.09373078 0.44980736 17.09373078 0.36647034 16.0549221 C-0.03601987 10.65829001 0 5.4595318 0 0 Z " fill="#9D4617" transform="translate(89,224)"/>
<path d="M0 0 C99.66 0 199.32 0 302 0 C302 20.54521277 302 20.54521277 301.0625 30.3125 C300.01753107 41.54398087 299.53791792 52.70372362 299 64 C201.32 64 103.64 64 3 64 C2.34 52.12 1.68 40.24 1 28 C0.67 24.7 0.34 21.4 0 18 C0 12.06 0 6.12 0 0 Z " fill="#F7E9D2" transform="translate(105,144)"/>
<path d="M0 0 C87.12 0 174.24 0 264 0 C264 12.53594821 263.97774602 24.78972601 263.125 37.25 C263.04636719 38.55839844 262.96773438 39.86679687 262.88671875 41.21484375 C261.98108195 54.99445597 261.98108195 54.99445597 260 61 C255.54035996 64.90293504 250.65481607 64.42070412 245.04856873 64.38095093 C243.53343778 64.38797089 243.53343778 64.38797089 241.98769814 64.39513266 C238.59900617 64.40711017 235.21071654 64.39761446 231.82202148 64.38818359 C229.39430505 64.39224803 226.96659046 64.39758919 224.53887939 64.40411377 C218.62726306 64.416385 212.71575144 64.41457277 206.804138 64.40587585 C202.00021985 64.39910101 197.19633374 64.39818171 192.39241219 64.4014473 C191.36688936 64.40213684 191.36688936 64.40213684 190.3206489 64.40284032 C188.93178048 64.4037995 187.54291208 64.40477214 186.15404368 64.4057581 C173.13135854 64.41431233 160.10873677 64.40447702 147.08606202 64.388357 C135.90963789 64.37495077 124.73330722 64.37728433 113.55688477 64.39111328 C100.57928826 64.40716335 87.60174727 64.41349152 74.62414223 64.40427649 C73.24068551 64.40332084 71.85722878 64.40237772 70.47377205 64.4014473 C69.45272588 64.40075306 69.45272588 64.40075306 68.41105251 64.40004479 C63.61185041 64.3974534 58.81268351 64.40182903 54.01348686 64.40888596 C47.55631438 64.41817211 41.0992771 64.41157264 34.64212036 64.39420319 C32.26850237 64.3902271 29.89486955 64.39139145 27.5212574 64.39799118 C24.28878446 64.40615219 21.05688381 64.39595073 17.82444763 64.38095093 C16.87844537 64.38764309 15.9324431 64.39433526 14.9577741 64.40123022 C8.67913676 64.34446324 8.67913676 64.34446324 5.45970249 62.71154213 C0.3027302 56.66484742 1.32437068 44.72723343 0.875 37.25 C0.78863281 35.98800781 0.70226562 34.72601563 0.61328125 33.42578125 C-0.09172833 22.22396241 0 11.28976191 0 0 Z " fill="#F7E9D2" transform="translate(124,432)"/>
<path d="M0 0 C11.43575219 7.58718174 19.30328578 19.92440676 22.96484375 33.04296875 C27.74289784 59.06559392 22.63598814 83.65145061 7.625 105.4296875 C-3.41687671 119.73686628 -15.91593422 129.22416057 -33.5625 133.6171875 C-34.22894531 133.80925781 -34.89539063 134.00132812 -35.58203125 134.19921875 C-46.37134277 136.47625294 -56.96214896 133.70213015 -66.26953125 128.18359375 C-79.98917644 118.81122966 -87.41955168 105.18249635 -91.12475586 89.19042969 C-94.9798184 66.52876814 -88.47875272 43.84623113 -76.5625 24.6171875 C-66.30877549 10.21996537 -53.04020756 -1.26668572 -35.5625 -5.3828125 C-34.923125 -5.56585938 -34.28375 -5.74890625 -33.625 -5.9375 C-22.37648366 -8.36615694 -9.96178112 -5.39596478 0 0 Z " fill="#020000" transform="translate(289.5625,254.3828125)"/>
<path d="M0 0 C112.2 0 224.4 0 340 0 C344 24 344 24 344 32 C229.16 32 114.32 32 -4 32 C-4 21.250323 -1.76723601 10.60341607 0 0 Z " fill="#9D4617" transform="translate(86,96)"/>
<path d="M0 0 C1.65979884 -0.00935994 1.65979884 -0.00935994 3.35312897 -0.01890898 C7.07434327 -0.03490968 10.79490896 -0.02220643 14.51612854 -0.00964355 C17.1785423 -0.01506156 19.84091084 -0.02203725 22.50331116 -0.03088379 C28.99227827 -0.04868614 35.48106048 -0.04482131 41.97003489 -0.03323323 C47.24355864 -0.02420511 52.51703051 -0.0229722 57.79055977 -0.02732849 C58.54069709 -0.02794142 59.29083441 -0.02855436 60.06370317 -0.02918586 C61.58753539 -0.03046475 63.1113676 -0.0317616 64.63519979 -0.03307623 C78.93027655 -0.04448725 93.22525077 -0.03136058 107.52031071 -0.00987476 C119.788011 0.00799307 132.05555989 0.00489577 144.32325745 -0.0135498 C158.56510619 -0.03495363 172.80686499 -0.04338472 187.04872757 -0.03110075 C188.56730623 -0.02982654 190.08588489 -0.02856906 191.60446358 -0.02732849 C192.35165395 -0.02671139 193.09884432 -0.02609429 193.86867682 -0.02545848 C199.1357849 -0.02200384 204.40283597 -0.02783646 209.66993523 -0.0372467 C216.08902247 -0.04846283 222.50791406 -0.0454351 228.92697888 -0.02412373 C232.20261065 -0.01360726 235.4778485 -0.0116524 238.75348854 -0.02272034 C242.3032722 -0.0336107 245.85213113 -0.01998944 249.40185547 0 C250.95758692 -0.01338433 250.95758692 -0.01338433 252.54474729 -0.02703905 C256.93524609 0.02109315 259.53361633 0.06919273 263.35621738 2.36411285 C265.67301931 4.9669871 266.62321033 7.21169502 267.72145081 10.51574707 C268.30636292 12.24244629 268.30636292 12.24244629 268.90309143 14.00402832 C269.29045471 15.20156738 269.67781799 16.39910645 270.07691956 17.63293457 C270.48361877 18.83820801 270.89031799 20.04348145 271.30934143 21.28527832 C274.26441956 30.13561314 274.26441956 30.13561314 274.26441956 32.50793457 C175.92441956 32.50793457 77.58441956 32.50793457 -23.73558044 32.50793457 C-21.89665971 25.76522522 -20.08156878 19.15439165 -17.79808044 12.57043457 C-17.55895935 11.84275879 -17.31983826 11.11508301 -17.07347107 10.36535645 C-16.82919373 9.66088379 -16.58491638 8.95641113 -16.33323669 8.23059082 C-16.12191101 7.60934326 -15.91058533 6.9880957 -15.69285583 6.34802246 C-12.05076056 -0.65286305 -7.15149126 -0.06139395 0 0 Z " fill="#9D4617" transform="translate(130.73558044433594,15.4920654296875)"/>
<path d="M0 0 C1.47331332 -0.00432875 2.94662156 -0.01084451 4.41991663 -0.01936007 C8.46954506 -0.03637623 12.51855658 -0.02215358 16.56815267 -0.00284529 C20.93496056 0.01256215 25.3016919 -0.00081508 29.66850281 -0.0105896 C38.22347623 -0.02512889 46.77821263 -0.01286935 55.33316362 0.00852364 C65.29180954 0.03251428 75.25040092 0.03082046 85.20906931 0.02821773 C102.97565116 0.02452604 120.74212121 0.04536622 138.50866699 0.07946777 C155.75576605 0.11256009 173.00274776 0.12672624 190.24987793 0.1204834 C209.02240966 0.11372186 227.7948922 0.11617291 246.56741667 0.1358428 C248.05596927 0.13740203 248.05596927 0.13740203 249.57459363 0.13899276 C251.56781766 0.14108368 253.56104166 0.14319466 255.55426565 0.14532593 C262.49901592 0.15222629 269.44375105 0.15289004 276.38850403 0.15144348 C284.84969422 0.15000489 293.31078863 0.15967429 301.77194703 0.18338984 C306.0905088 0.19526318 310.40893693 0.20236613 314.72751427 0.19655228 C318.67895644 0.19138979 322.63011599 0.20003542 326.58150977 0.21982688 C328.01279136 0.2245762 329.44410039 0.2242545 330.87537795 0.21841651 C332.817783 0.21125785 334.76023128 0.22428185 336.70259857 0.23834991 C337.78247087 0.23992112 338.86234317 0.24149232 339.97493887 0.24311113 C343.3016214 0.67647955 345.19164877 1.64437828 347.87927246 3.62145996 C349.28384983 6.4306147 349.12822403 8.5095653 348.87927246 11.62145996 C347.09942841 14.75737566 346.35619039 15.46248732 342.87927246 16.62145996 C340.90424827 16.71809556 338.92607655 16.75420965 336.94869423 16.75847435 C335.70223236 16.76354889 334.45577049 16.76862344 333.17153704 16.77385175 C331.78070939 16.77445344 330.38988168 16.77495252 328.99905396 16.77536011 C327.52747334 16.77937438 326.05589383 16.78381255 324.58431566 16.78863966 C320.53038571 16.80061443 316.47646767 16.80625568 312.4225235 16.81082082 C308.05433368 16.8167733 303.68615811 16.82838383 299.31797791 16.83911133 C288.76517128 16.86364044 278.21235993 16.87826167 267.65953356 16.8911714 C264.68038071 16.89488246 261.70122832 16.89885574 258.72207594 16.90292406 C240.23168177 16.92815577 221.74128688 16.95021415 203.25087929 16.96265221 C198.96750511 16.96558201 194.68413096 16.96854366 190.40075684 16.97155762 C189.33611542 16.97230367 188.271474 16.97304972 187.17457072 16.97381838 C169.9156966 16.9864807 152.65692528 17.0197156 135.39809926 17.06135945 C117.68955511 17.10373924 99.98106367 17.12734251 82.27246892 17.13257277 C72.32529955 17.135991 62.37829097 17.14779483 52.43117142 17.18067551 C43.96260531 17.20862263 35.49423294 17.21969881 27.02562429 17.20848005 C22.70291038 17.20328 18.38060254 17.20626698 14.05794716 17.23094559 C10.10260513 17.2533393 6.14796319 17.25277615 2.19260971 17.23374172 C0.75990511 17.23092776 -0.67284597 17.2366174 -2.10547547 17.25155465 C-4.04971696 17.27059074 -5.9942017 17.25591411 -7.93846703 17.23949242 C-9.55990169 17.24152721 -9.55990169 17.24152721 -11.21409261 17.24360311 C-15.11908176 16.40776982 -16.6371892 14.67746662 -19.12072754 11.62145996 C-19.91564891 7.80583739 -19.52602419 6.26950191 -17.46421051 2.97280121 C-12.89873764 -1.3067739 -5.83883198 -0.05514447 0 0 Z " fill="#743410" transform="translate(91.1207275390625,63.3785400390625)"/>
<path d="M0 0 C9.20719136 5.74865247 13.77374455 13.81182488 17 24 C21.0976498 43.73265401 16.81115478 63.3377617 6.18603516 80.25976562 C-2.2139298 92.58478625 -13.84525983 101.69212272 -28.625 104.75 C-29.40875 104.8325 -30.1925 104.915 -31 105 C-29.62773843 101.33592014 -27.96878635 97.9014103 -26.18188477 94.42919922 C-20.15587547 82.71683096 -15.80052705 72.25530642 -15.875 58.875 C-15.87113281 58.17246094 -15.86726563 57.46992188 -15.86328125 56.74609375 C-15.86976459 53.31640856 -16.10776253 50.29857489 -17 47 C-18.54429399 30.27750226 -11.87257251 15.17273283 -1.75390625 2.09765625 C-1.17511719 1.40542969 -0.59632813 0.71320313 0 0 Z " fill="#733410" transform="translate(280,268)"/>
<path d="M0 0 C-1.38420634 3.81773039 -3.19917149 7.24120373 -5.17407227 10.77197266 C-13.82759529 26.37610952 -16.63809084 40.19288682 -14 58 C-12.42280021 75.19406331 -20.59980505 90.23542882 -30 104 C-35.13278479 103.0902504 -37.82356753 99.95273547 -41 96 C-42.92056117 92.76722295 -44.51761657 89.45334268 -46 86 C-46.35449219 85.19820313 -46.70898438 84.39640625 -47.07421875 83.5703125 C-52.80921202 67.64784175 -48.75313653 47.63636053 -41.89160156 32.80322266 C-34.94784488 18.759798 -23.54380352 6.48999709 -8.56640625 1.12890625 C-5.66405431 0.35672087 -3.00415736 0 0 0 Z " fill="#733410" transform="translate(263,264)"/>
</svg>
